<svg width="1440" height="347" viewBox="0 0 1440 347" fill="none" xmlns="http://www.w3.org/2000/svg">
<path fill-rule="evenodd" clip-rule="evenodd" d="M0 130.318L48 144.318C96 159.318 192 188.318 288 216.318C384 245.318 480 274.318 576 224.318C672 173.318 768 44.3184 864 29.3184C960 15.3184 1056 116.318 1152 166.318C1248 216.318 1344 216.318 1392 216.318H1440V346.318H1392C1344 346.318 1248 346.318 1152 346.318C1056 346.318 960 346.318 864 346.318C768 346.318 672 346.318 576 346.318C480 346.318 384 346.318 288 346.318C192 346.318 96 346.318 48 346.318H0V130.318Z" fill="#191545" fill-opacity="0.05"/>
<path fill-rule="evenodd" clip-rule="evenodd" d="M0 130H48C96 130 192 130 288 159C384 188 480 245 576 209C672 173 768 44 864 15C960 -14 1056 58 1152 72C1248 87 1344 44 1392 22L1440 0V346H1392C1344 346 1248 346 1152 346C1056 346 960 346 864 346C768 346 672 346 576 346C480 346 384 346 288 346C192 346 96 346 48 346H0V130Z" fill="#F2F2F2" fill-opacity="0.3"/>
</svg>
